# xmcd
#
# Track frame offsets: 
#        150
#        13100
#        26417
#        44367
#        56605
#        65597
#        84557
#        105827
#        117567
#        126040
#        139307
#        152912
#
# Disc length: 2594 seconds
#
# Revision: 1
# Processed by: cddbd v1.5.2PL0 Copyright (c) Steve Scherf et al.
# Submitted via: ExactAudioCopy v0.95b4
#
DISCID=a00a200c
DTITLE=Truck Stop Love - How I Spent My Summer Vacation
DYEAR=1995
DGENRE=Alt. Rock
TTITLE0=You Owe
TTITLE1=Other Stars
TTITLE2=Bitter Boy
TTITLE3=Walton's Mountain
TTITLE4=How I Spent My Summer Vacation
TTITLE5=Old Flame
TTITLE6=U*S*A Dad
TTITLE7=The Letter
TTITLE8=Benny
TTITLE9=Whiskey Waltz
TTITLE10=Can't Hear It
TTITLE11=Carolina's Eyes
EXTD=
EXTT0=
EXTT1=
EXTT2=
EXTT3=
EXTT4=
EXTT5=
EXTT6=
EXTT7=
EXTT8=
EXTT9=
EXTT10=
EXTT11=
PLAYORDER=
